<svg xmlns="http://www.w3.org/2000/svg" width="223.459" height="10.761" viewBox="0 0 223.459 10.761">
  <g id="Grupo_46" data-name="Grupo 46" transform="translate(-189.573 -5338.985)">
    <path id="Trazado_1" data-name="Trazado 1" d="M125.865,260.7h2.26v10.4h-1.948l-5.037-6.614V271.1h-2.259V260.7h2.11l4.874,6.405Zm11.94,10.4h2.288V260.7h-2.288Zm15.663-4.013h2.3v1.5a3.6,3.6,0,0,1-2.155.629,3.183,3.183,0,0,1-1.27-.246,2.978,2.978,0,0,1-1-.693,3.126,3.126,0,0,1-.654-1.05,3.671,3.671,0,0,1-.231-1.319v-.029a3.426,3.426,0,0,1,.231-1.259,3.225,3.225,0,0,1,.64-1.028,3.145,3.145,0,0,1,.951-.7,2.653,2.653,0,0,1,1.166-.26,4.191,4.191,0,0,1,.817.074,3.669,3.669,0,0,1,.691.208,3.845,3.845,0,0,1,.617.327,5.753,5.753,0,0,1,.594.445l1.442-1.739a6.962,6.962,0,0,0-.833-.609,4.966,4.966,0,0,0-.922-.446,6.13,6.13,0,0,0-1.062-.275,7.721,7.721,0,0,0-1.272-.1,5.539,5.539,0,0,0-2.185.424,5.308,5.308,0,0,0-2.86,2.869,5.316,5.316,0,0,0-.409,2.087v.03a5.58,5.58,0,0,0,.4,2.14,5.023,5.023,0,0,0,1.121,1.694,5.146,5.146,0,0,0,1.725,1.115,5.928,5.928,0,0,0,2.222.4,6.3,6.3,0,0,0,2.535-.482,7.668,7.668,0,0,0,1.91-1.168v-4.518h-4.519Zm19.01.3,2.54,3.715h-2.674l-2.23-3.329h-1.8V271.1h-2.29V260.7h4.757a4.1,4.1,0,0,1,3.032,1.054,3.216,3.216,0,0,1,.891,2.378v.03a3.267,3.267,0,0,1-.616,2.058A3.586,3.586,0,0,1,172.478,267.384Zm-.09-3.136a1.325,1.325,0,0,0-.475-1.114,2.1,2.1,0,0,0-1.323-.372h-2.274v2.987h2.318a1.9,1.9,0,0,0,1.3-.4,1.356,1.356,0,0,0,.454-1.07Zm15.9-3.627,4.458,10.478h-2.391l-.951-2.333H185l-.95,2.333h-2.334l4.458-10.478Zm.3,6.123-1.381-3.373-1.384,3.373Zm20.806-1.649-2.735-4.4h-2.467v10.4h2.258v-6.747l2.9,4.4h.059l2.928-4.444V271.1H214.6V260.7h-2.467Zm15.8,1.783H230.1v-2.036h-4.905v-2.11h5.574V260.7h-7.833v10.4h7.907v-2.036h-5.648Zm19.989.505,2.542,3.715h-2.677l-2.228-3.329h-1.8V271.1h-2.288V260.7h4.755a4.1,4.1,0,0,1,3.031,1.054,3.211,3.211,0,0,1,.892,2.378v.03a3.269,3.269,0,0,1-.616,2.058A3.579,3.579,0,0,1,245.18,267.384Zm-.089-3.136a1.326,1.326,0,0,0-.475-1.114,2.1,2.1,0,0,0-1.323-.372h-2.274v2.987h2.318a1.9,1.9,0,0,0,1.3-.4,1.36,1.36,0,0,0,.453-1.07Zm16.683,4.592a3.193,3.193,0,0,1-1.508.327,2.857,2.857,0,0,1-2.178-.966,3.321,3.321,0,0,1-.617-1.04,3.58,3.58,0,0,1-.222-1.264v-.029a3.514,3.514,0,0,1,.222-1.256,3.273,3.273,0,0,1,.625-1.033,2.866,2.866,0,0,1,.959-.7,2.921,2.921,0,0,1,1.212-.252,3.161,3.161,0,0,1,1.419.313,5.475,5.475,0,0,1,1.24.862l1.457-1.68a6.175,6.175,0,0,0-.773-.654,4.785,4.785,0,0,0-.907-.505,5.578,5.578,0,0,0-1.092-.327,6.929,6.929,0,0,0-1.329-.119,5.574,5.574,0,0,0-2.2.424,5.169,5.169,0,0,0-1.709,1.16,5.4,5.4,0,0,0-1.515,3.8v.03a5.464,5.464,0,0,0,.4,2.1,5.126,5.126,0,0,0,2.808,2.839,5.394,5.394,0,0,0,2.126.416,6.844,6.844,0,0,0,1.367-.126,4.863,4.863,0,0,0,2.065-.96,7.377,7.377,0,0,0,.832-.773L263,267.949A5.862,5.862,0,0,1,261.774,268.84Zm16.028-8.219L282.26,271.1h-2.393l-.952-2.333h-4.4l-.951,2.333h-2.335l4.461-10.478Zm.3,6.123-1.383-3.373-1.381,3.373Zm10.863-3.938h3.166V271.1h2.289v-8.293h3.166V260.7h-8.62Zm26.812,3.063v.029a5.245,5.245,0,0,1-.417,2.088,5.312,5.312,0,0,1-2.9,2.868,6.023,6.023,0,0,1-4.437,0,5.507,5.507,0,0,1-1.746-1.144,5.1,5.1,0,0,1-1.144-1.694,5.343,5.343,0,0,1-.409-2.089v-.03a5.248,5.248,0,0,1,.416-2.087,5.321,5.321,0,0,1,2.906-2.869,6.016,6.016,0,0,1,4.436,0,5.524,5.524,0,0,1,1.746,1.145,5.077,5.077,0,0,1,1.144,1.694A5.341,5.341,0,0,1,315.774,265.868Zm-2.393.029a3.459,3.459,0,0,0-.231-1.262,3.113,3.113,0,0,0-1.656-1.747,3.048,3.048,0,0,0-1.264-.26,3.128,3.128,0,0,0-1.27.252,2.9,2.9,0,0,0-.981.7,3.274,3.274,0,0,0-.639,1.033,3.393,3.393,0,0,0-.231,1.256v.029a3.457,3.457,0,0,0,.231,1.264,3.1,3.1,0,0,0,.654,1.04,3.161,3.161,0,0,0,1,.706,3.039,3.039,0,0,0,1.27.26,3.12,3.12,0,0,0,1.263-.253,2.863,2.863,0,0,0,.989-.7,3.285,3.285,0,0,0,.638-1.032,3.4,3.4,0,0,0,.231-1.256Z" transform="translate(70.692 5078.469)" fill="#fff"/>
    <path id="Trazado_19" data-name="Trazado 19" d="M.84,8.1A5.1,5.1,0,1,0,5.936,3,5.088,5.088,0,0,0,.84,8.1Zm.84,0a4.256,4.256,0,1,1,4.256,4.284A4.26,4.26,0,0,1,1.68,8.1Zm6.09.91a1.9,1.9,0,0,1-1.806,1.176A1.911,1.911,0,0,1,4.032,8.1,1.938,1.938,0,0,1,5.964,6,1.782,1.782,0,0,1,7.7,7.148l.644-.42A2.4,2.4,0,0,0,5.95,5.244,2.769,2.769,0,0,0,3.192,8.1,2.719,2.719,0,0,0,5.95,10.956,2.613,2.613,0,0,0,8.386,9.4Z" transform="translate(402 5336.5)" fill="#fff"/>
  </g>
</svg>
